<svg width="25" height="25" viewBox="0 0 25 25" fill="none" xmlns="http://www.w3.org/2000/svg">
<path d="M7.42188 0C7.73268 0 8.03075 0.123465 8.25052 0.343234C8.47028 0.563003 8.59375 0.861074 8.59375 1.17188V3.125H16.4062V1.17188C16.4062 0.861074 16.5297 0.563003 16.7495 0.343234C16.9693 0.123465 17.2673 0 17.5781 0C17.8889 0 18.187 0.123465 18.4068 0.343234C18.6265 0.563003 18.75 0.861074 18.75 1.17188V3.125H20.7031C22.2125 3.125 23.4375 4.35 23.4375 5.85938V22.2656C23.4375 22.9908 23.1494 23.6863 22.6366 24.1991C22.1238 24.7119 21.4283 25 20.7031 25H4.29688C3.57167 25 2.87617 24.7119 2.36338 24.1991C1.85059 23.6863 1.5625 22.9908 1.5625 22.2656V5.85938C1.5625 4.35 2.7875 3.125 4.29688 3.125H6.25V1.17188C6.25 0.861074 6.37347 0.563003 6.59323 0.343234C6.813 0.123465 7.11107 0 7.42188 0ZM3.90625 11.7188V22.2656C3.90625 22.4813 4.08125 22.6562 4.29688 22.6562H20.7031C20.8067 22.6562 20.9061 22.6151 20.9793 22.5418C21.0526 22.4686 21.0938 22.3692 21.0938 22.2656V11.7188H3.90625ZM20.7031 5.46875H4.29688C4.19327 5.46875 4.09392 5.5099 4.02066 5.58316C3.94741 5.65642 3.90625 5.75577 3.90625 5.85938V9.375H21.0938V5.85938C21.0938 5.75577 21.0526 5.65642 20.9793 5.58316C20.9061 5.5099 20.8067 5.46875 20.7031 5.46875Z" fill="#4C80E2"/>
</svg>
