<svg width="23" height="25" viewBox="0 0 23 25" fill="none" xmlns="http://www.w3.org/2000/svg">
<path d="M6.42188 0C6.73268 0 7.03075 0.123465 7.25052 0.343234C7.47028 0.563003 7.59375 0.861074 7.59375 1.17188V3.125H15.4062V1.17188C15.4062 0.861074 15.5297 0.563003 15.7495 0.343234C15.9693 0.123465 16.2673 0 16.5781 0C16.8889 0 17.187 0.123465 17.4068 0.343234C17.6265 0.563003 17.75 0.861074 17.75 1.17188V3.125H19.7031C21.2125 3.125 22.4375 4.35 22.4375 5.85938V22.2656C22.4375 22.9908 22.1494 23.6863 21.6366 24.1991C21.1238 24.7119 20.4283 25 19.7031 25H3.29688C2.57167 25 1.87617 24.7119 1.36338 24.1991C0.850585 23.6863 0.5625 22.9908 0.5625 22.2656V5.85938C0.5625 4.35 1.7875 3.125 3.29688 3.125H5.25V1.17188C5.25 0.861074 5.37347 0.563003 5.59323 0.343234C5.813 0.123465 6.11107 0 6.42188 0ZM2.90625 11.7188V22.2656C2.90625 22.4813 3.08125 22.6562 3.29688 22.6562H19.7031C19.8067 22.6562 19.9061 22.6151 19.9793 22.5418C20.0526 22.4686 20.0938 22.3692 20.0938 22.2656V11.7188H2.90625ZM19.7031 5.46875H3.29688C3.19327 5.46875 3.09392 5.5099 3.02066 5.58316C2.94741 5.65642 2.90625 5.75577 2.90625 5.85938V9.375H20.0938V5.85938C20.0938 5.75577 20.0526 5.65642 19.9793 5.58316C19.9061 5.5099 19.8067 5.46875 19.7031 5.46875Z" fill="#575757"/>
</svg>
