<svg width="15" height="12" viewBox="0 0 15 12" fill="none" xmlns="http://www.w3.org/2000/svg">
<path d="M12.92 0.962417C13.0053 0.875375 13.1071 0.806227 13.2195 0.759021C13.3318 0.711815 13.4525 0.6875 13.5743 0.6875C13.6962 0.6875 13.8169 0.711815 13.9292 0.759021C14.0416 0.806227 14.1434 0.875375 14.2287 0.962417C14.5862 1.32367 14.5912 1.90742 14.2412 2.27492L6.84998 11.0124C6.76606 11.1046 6.66422 11.1786 6.5507 11.2301C6.43717 11.2815 6.31435 11.3093 6.18973 11.3116C6.06512 11.3139 5.94134 11.2908 5.82596 11.2437C5.71059 11.1965 5.60604 11.1264 5.51873 11.0374L1.02123 6.47992C0.847772 6.30302 0.75061 6.06516 0.75061 5.81742C0.75061 5.56967 0.847772 5.33181 1.02123 5.15492C1.10653 5.06787 1.20835 4.99873 1.32071 4.95152C1.43307 4.90431 1.55372 4.88 1.6756 4.88C1.79748 4.88 1.91813 4.90431 2.03049 4.95152C2.14285 4.99873 2.24467 5.06787 2.32998 5.15492L6.14497 9.02117L12.895 0.989918L12.92 0.962417Z" fill="url(#paint0_linear_2538_2996)"/>
<defs>
<linearGradient id="paint0_linear_2538_2996" x1="0.75061" y1="0.6875" x2="7.17028" y2="14.6758" gradientUnits="userSpaceOnUse">
<stop stop-color="#E3F1FE"/>
<stop offset="0.526042" stop-color="#FDFDFD"/>
<stop offset="1" stop-color="#ACC3FF"/>
</linearGradient>
</defs>
</svg>
