<svg width="28" height="28" viewBox="0 0 28 28" fill="none" xmlns="http://www.w3.org/2000/svg">
<path d="M3.49991 15.1667H4.66658V23.3333C4.66658 24.6202 5.71308 25.6667 6.99991 25.6667H20.9999C22.2867 25.6667 23.3332 24.6202 23.3332 23.3333V15.1667H24.4999C24.7306 15.1666 24.9561 15.0982 25.1479 14.97C25.3398 14.8418 25.4893 14.6596 25.5775 14.4464C25.6658 14.2333 25.6889 13.9987 25.6439 13.7725C25.5989 13.5462 25.4879 13.3383 25.3247 13.1752L14.8247 2.67517C14.7165 2.56673 14.5879 2.4807 14.4464 2.42201C14.3049 2.36331 14.1531 2.3331 13.9999 2.3331C13.8467 2.3331 13.695 2.36331 13.5534 2.42201C13.4119 2.4807 13.2833 2.56673 13.1751 2.67517L2.67508 13.1752C2.51197 13.3383 2.4009 13.5462 2.3559 13.7725C2.3109 13.9987 2.33401 14.2333 2.42229 14.4464C2.51057 14.6596 2.66007 14.8418 2.85188 14.97C3.04369 15.0982 3.26921 15.1666 3.49991 15.1667ZM11.6666 23.3333V17.5H16.3332V23.3333H11.6666ZM13.9999 5.14967L20.9999 12.1497V17.5L21.0011 23.3333H18.6666V17.5C18.6666 16.2132 17.6201 15.1667 16.3332 15.1667H11.6666C10.3797 15.1667 9.33325 16.2132 9.33325 17.5V23.3333H6.99991V12.1497L13.9999 5.14967Z" fill="#575757"/>
</svg>
