<svg width="28" height="28" viewBox="0 0 28 28" fill="none" xmlns="http://www.w3.org/2000/svg">
<path d="M3.5 15.1667H4.66666V23.3333C4.66666 24.6202 5.71316 25.6667 7 25.6667H21C22.2868 25.6667 23.3333 24.6202 23.3333 23.3333V15.1667H24.5C24.7307 15.1666 24.9562 15.0982 25.148 14.97C25.3398 14.8418 25.4893 14.6596 25.5776 14.4464C25.6659 14.2333 25.689 13.9987 25.644 13.7725C25.599 13.5462 25.4879 13.3383 25.3248 13.1752L14.8248 2.67517C14.7166 2.56673 14.588 2.4807 14.4465 2.42201C14.3049 2.36331 14.1532 2.3331 14 2.3331C13.8468 2.3331 13.6951 2.36331 13.5535 2.42201C13.412 2.4807 13.2834 2.56673 13.1752 2.67517L2.67516 13.1752C2.51205 13.3383 2.40098 13.5462 2.35598 13.7725C2.31099 13.9987 2.33409 14.2333 2.42237 14.4464C2.51066 14.6596 2.66015 14.8418 2.85196 14.97C3.04377 15.0982 3.26929 15.1666 3.5 15.1667ZM11.6667 23.3333V17.5H16.3333V23.3333H11.6667ZM14 5.14967L21 12.1497V17.5L21.0012 23.3333H18.6667V17.5C18.6667 16.2132 17.6202 15.1667 16.3333 15.1667H11.6667C10.3798 15.1667 9.33333 16.2132 9.33333 17.5V23.3333H7V12.1497L14 5.14967Z" fill="#4C80E2"/>
</svg>
