<svg width="21" height="20" viewBox="0 0 21 20" fill="none" xmlns="http://www.w3.org/2000/svg">
<path d="M6.39035 0.814825C5.00339 1.05993 3.8359 1.6383 2.81611 2.5942C1.75566 3.58938 1.12338 4.71182 0.827573 6.13839C0.689834 6.78555 0.705181 7.98158 0.853086 8.64829C1.14371 9.97175 1.73514 11.0258 2.74476 12.0012C3.7492 12.9719 4.86067 13.5453 6.31898 13.8444C6.91558 13.9621 8.2565 13.9621 8.87861 13.8444C9.77083 13.6729 10.7143 13.3003 11.4382 12.8395L11.739 12.6434L12.05 12.9178C12.2234 13.0748 13.8396 14.5207 15.6396 16.1385C17.4393 17.7562 18.9844 19.1189 19.0761 19.168C19.7185 19.5062 20.4782 18.864 20.2131 18.2023C20.1417 18.021 19.586 17.5013 16.537 14.766C13.3604 11.9131 12.9474 11.5306 13.0034 11.4572C13.6865 10.5699 14.0487 9.85409 14.3036 8.88842C14.4771 8.21691 14.5229 6.95707 14.4005 6.26104C14.1456 4.84444 13.5286 3.68751 12.4833 2.67775C11.5044 1.73163 10.3724 1.13371 9.01616 0.844335C8.41955 0.716895 7.02761 0.70214 6.39035 0.814825ZM8.7357 1.62853C11.0201 2.05014 12.8912 3.72659 13.4469 5.86376C13.7375 6.96186 13.712 8.01569 13.3704 9.05495C12.6974 11.1237 10.8568 12.6827 8.66433 13.0503C8.03205 13.1581 7.02761 13.1434 6.40051 13.0207C3.96327 12.5503 2.07161 10.6678 1.63826 8.29529C1.52105 7.64832 1.5669 6.54044 1.74032 5.91781C2.20437 4.20704 3.40255 2.81975 5.06479 2.06489C5.57966 1.82955 6.30384 1.62852 6.87991 1.55512C7.36409 1.50108 8.21564 1.5306 8.7357 1.62853Z" fill="#525252"/>
</svg>
