<svg width="32" height="32" viewBox="0 0 32 32" fill="none" xmlns="http://www.w3.org/2000/svg">
<g clip-path="url(#clip0_598_1115)">
<path d="M0 24V21.9C0 20.9444 0.488889 20.1667 1.46667 19.5667C2.44444 18.9667 3.73333 18.6667 5.33333 18.6667C5.62222 18.6667 5.9 18.6724 6.16667 18.684C6.43333 18.6956 6.68889 18.7231 6.93333 18.7667C6.62222 19.2333 6.38889 19.7222 6.23333 20.2333C6.07778 20.7444 6 21.2778 6 21.8333V24H0ZM8 24V21.8333C8 21.1222 8.19467 20.472 8.584 19.8827C8.97333 19.2933 9.52311 18.7769 10.2333 18.3333C10.9444 17.8889 11.7947 17.5556 12.784 17.3333C13.7733 17.1111 14.8453 17 16 17C17.1778 17 18.2613 17.1111 19.2507 17.3333C20.24 17.5556 21.0898 17.8889 21.8 18.3333C22.5111 18.7778 23.0556 19.2947 23.4333 19.884C23.8111 20.4733 24 21.1231 24 21.8333V24H8ZM26 24V21.8333C26 21.2556 25.9276 20.7111 25.7827 20.2C25.6378 19.6889 25.4213 19.2111 25.1333 18.7667C25.3778 18.7222 25.628 18.6947 25.884 18.684C26.14 18.6733 26.4009 18.6676 26.6667 18.6667C28.2667 18.6667 29.5556 18.9613 30.5333 19.5507C31.5111 20.14 32 20.9231 32 21.9V24H26ZM10.8333 21.3333H21.2C20.9778 20.8889 20.3609 20.5 19.3493 20.1667C18.3378 19.8333 17.2213 19.6667 16 19.6667C14.7778 19.6667 13.6609 19.8333 12.6493 20.1667C11.6378 20.5 11.0329 20.8889 10.8347 21.3333H10.8333ZM5.33333 17.3333C4.6 17.3333 3.972 17.072 3.44933 16.5493C2.92667 16.0267 2.66578 15.3991 2.66667 14.6667C2.66667 13.9111 2.928 13.2778 3.45067 12.7667C3.97333 12.2556 4.60089 12 5.33333 12C6.08889 12 6.72222 12.2556 7.23333 12.7667C7.74444 13.2778 8 13.9111 8 14.6667C8 15.4 7.74444 16.028 7.23333 16.5507C6.72222 17.0733 6.08889 17.3342 5.33333 17.3333ZM26.6667 17.3333C25.9333 17.3333 25.3053 17.072 24.7827 16.5493C24.26 16.0267 23.9991 15.3991 24 14.6667C24 13.9111 24.2613 13.2778 24.784 12.7667C25.3067 12.2556 25.9342 12 26.6667 12C27.4222 12 28.0556 12.2556 28.5667 12.7667C29.0778 13.2778 29.3333 13.9111 29.3333 14.6667C29.3333 15.4 29.0778 16.028 28.5667 16.5507C28.0556 17.0733 27.4222 17.3342 26.6667 17.3333ZM16 16C14.8889 16 13.9444 15.6111 13.1667 14.8333C12.3889 14.0556 12 13.1111 12 12C12 10.8667 12.3889 9.91645 13.1667 9.14933C13.9444 8.38222 14.8889 7.99911 16 8C17.1333 8 18.0836 8.38356 18.8507 9.15067C19.6178 9.91778 20.0009 10.8676 20 12C20 13.1111 19.6164 14.0556 18.8493 14.8333C18.0822 15.6111 17.1324 16 16 16ZM16 13.3333C16.3778 13.3333 16.6947 13.2053 16.9507 12.9493C17.2067 12.6933 17.3342 12.3769 17.3333 12C17.3333 11.6222 17.2053 11.3053 16.9493 11.0493C16.6933 10.7933 16.3769 10.6658 16 10.6667C15.6222 10.6667 15.3053 10.7947 15.0493 11.0507C14.7933 11.3067 14.6658 11.6231 14.6667 12C14.6667 12.3778 14.7947 12.6947 15.0507 12.9507C15.3067 13.2067 15.6231 13.3342 16 13.3333Z" fill="#525252"/>
</g>
<defs>
<clipPath id="clip0_598_1115">
<rect width="32" height="32" fill="white"/>
</clipPath>
</defs>
</svg>
