<svg width="32" height="32" viewBox="0 0 32 32" fill="none" xmlns="http://www.w3.org/2000/svg">
<path d="M14.1201 17.88C14.6668 18.4 14.6668 19.2533 14.1201 19.7733C13.6001 20.2933 12.7468 20.2933 12.2268 19.7733C10.9779 18.5226 10.2765 16.8274 10.2765 15.06C10.2765 13.2925 10.9779 11.5974 12.2268 10.3466L16.9468 5.62665C18.1975 4.37782 19.8927 3.67639 21.6601 3.67639C23.4275 3.67639 25.1227 4.37782 26.3734 5.62665C27.6223 6.87735 28.3237 8.57254 28.3237 10.34C28.3237 12.1074 27.6223 13.8026 26.3734 15.0533L24.3868 17.04C24.4001 15.9466 24.2268 14.8533 23.8534 13.8133L24.4801 13.1733C24.8539 12.8036 25.1506 12.3634 25.3531 11.8782C25.5557 11.393 25.6599 10.8724 25.6599 10.3466C25.6599 9.82088 25.5557 9.30034 25.3531 8.81514C25.1506 8.32994 24.8539 7.88973 24.4801 7.51998C24.1104 7.1462 23.6701 6.84946 23.1849 6.64694C22.6997 6.44442 22.1792 6.34014 21.6534 6.34014C21.1277 6.34014 20.6071 6.44442 20.1219 6.64694C19.6367 6.84946 19.1965 7.1462 18.8268 7.51998L14.1201 12.2266C13.7463 12.5964 13.4496 13.0366 13.2471 13.5218C13.0445 14.007 12.9403 14.5275 12.9403 15.0533C12.9403 15.5791 13.0445 16.0996 13.2471 16.5848C13.4496 17.07 13.7463 17.5102 14.1201 17.88ZM17.8801 12.2266C18.4001 11.7066 19.2534 11.7066 19.7734 12.2266C21.0223 13.4774 21.7237 15.1725 21.7237 16.94C21.7237 18.7074 21.0223 20.4026 19.7734 21.6533L15.0534 26.3733C13.8027 27.6221 12.1075 28.3236 10.3401 28.3236C8.57267 28.3236 6.87747 27.6221 5.62677 26.3733C4.37794 25.1226 3.67651 23.4274 3.67651 21.66C3.67651 19.8925 4.37794 18.1974 5.62677 16.9466L7.61344 14.96C7.6001 16.0533 7.77344 17.1466 8.14677 18.2L7.5201 18.8266C7.14632 19.1964 6.84958 19.6366 6.64706 20.1218C6.44454 20.607 6.34027 21.1275 6.34027 21.6533C6.34027 22.1791 6.44454 22.6996 6.64706 23.1848C6.84958 23.67 7.14632 24.1102 7.5201 24.48C7.88985 24.8538 8.33007 25.1505 8.81526 25.353C9.30046 25.5555 9.821 25.6598 10.3468 25.6598C10.8725 25.6598 11.3931 25.5555 11.8783 25.353C12.3635 25.1505 12.8037 24.8538 13.1734 24.48L17.8801 19.7733C18.2539 19.4036 18.5506 18.9634 18.7531 18.4782C18.9557 17.993 19.0599 17.4724 19.0599 16.9466C19.0599 16.4209 18.9557 15.9003 18.7531 15.4151C18.5506 14.9299 18.2539 14.4897 17.8801 14.12C17.7506 13.9986 17.6474 13.852 17.5768 13.6892C17.5063 13.5264 17.4698 13.3508 17.4698 13.1733C17.4698 12.9959 17.5063 12.8203 17.5768 12.6574C17.6474 12.4946 17.7506 12.348 17.8801 12.2266Z" fill="#525252"/>
</svg>
