<svg width="32" height="32" viewBox="0 0 32 32" fill="none" xmlns="http://www.w3.org/2000/svg">
<path d="M26.6667 8.00002H21.3334V5.33335C21.3334 4.62611 21.0525 3.94783 20.5524 3.44774C20.0523 2.94764 19.374 2.66669 18.6667 2.66669H13.3334C11.8534 2.66669 10.6667 3.85335 10.6667 5.33335V8.00002H5.33341C3.85341 8.00002 2.66675 9.18669 2.66675 10.6667V25.3334C2.66675 26.0406 2.9477 26.7189 3.4478 27.219C3.94789 27.7191 4.62617 28 5.33341 28H26.6667C27.374 28 28.0523 27.7191 28.5524 27.219C29.0525 26.7189 29.3334 26.0406 29.3334 25.3334V10.6667C29.3334 9.95944 29.0525 9.28117 28.5524 8.78107C28.0523 8.28097 27.374 8.00002 26.6667 8.00002ZM13.3334 5.33335H18.6667V8.00002H13.3334V5.33335ZM16.0001 12C16.8841 12 17.732 12.3512 18.3571 12.9763C18.9822 13.6015 19.3334 14.4493 19.3334 15.3334C19.3334 16.2174 18.9822 17.0653 18.3571 17.6904C17.732 18.3155 16.8841 18.6667 16.0001 18.6667C15.116 18.6667 14.2682 18.3155 13.6431 17.6904C13.0179 17.0653 12.6667 16.2174 12.6667 15.3334C12.6667 14.4493 13.0179 13.6015 13.6431 12.9763C14.2682 12.3512 15.116 12 16.0001 12ZM22.6667 25.3334H9.33342V23.6667C9.33342 21.8267 12.3201 20.3334 16.0001 20.3334C19.6801 20.3334 22.6667 21.8267 22.6667 23.6667V25.3334Z" fill="#525252"/>
</svg>
