<svg width="32" height="32" viewBox="0 0 32 32" fill="none" xmlns="http://www.w3.org/2000/svg">
<path d="M14.6667 5.33337C11.7333 5.33337 9.33333 7.73337 9.33333 10.6667C9.33333 13.6 11.7333 16 14.6667 16C17.6 16 20 13.6 20 10.6667C20 7.73337 17.6 5.33337 14.6667 5.33337ZM14.6667 8.00004C16.1333 8.00004 17.3333 9.20004 17.3333 10.6667C17.3333 12.1334 16.1333 13.3334 14.6667 13.3334C13.2 13.3334 12 12.1334 12 10.6667C12 9.20004 13.2 8.00004 14.6667 8.00004ZM14.6667 17.3334C11.0667 17.3334 4 19.0667 4 22.6667V26.6667H16.6667C16.2667 25.8667 16.1333 25.0667 16 24.1334H6.53333V22.6667C6.53333 21.8667 10.6667 19.8667 14.6667 19.8667C15.3333 19.8667 16 20 16.6667 20C17.0667 19.2 17.4667 18.4 18.1333 17.7334C16.8 17.4667 15.6 17.3334 14.6667 17.3334ZM24 26.6667C22.1333 26.6667 20.6667 25.2 20.6667 23.3334C20.6667 22.8 20.8 22.2667 21.0667 21.8667L19.6 20.4C19.0667 21.2 18.6667 22.2667 18.6667 23.3334C18.6667 26.2667 21.0667 28.6667 24 28.6667V30.6667L26.9333 27.7334L24 24.6667V26.6667ZM24 18V16L21.0667 18.9334L24 21.8667V20C25.8667 20 27.3333 21.4667 27.3333 23.3334C27.3333 23.8667 27.2 24.4 26.9333 24.8L28.4 26.2667C28.9333 25.4667 29.3333 24.4 29.3333 23.3334C29.3333 20.4 26.9333 18 24 18Z" fill="#525252"/>
</svg>
