<svg width="25" height="25" viewBox="0 0 25 25" fill="none" xmlns="http://www.w3.org/2000/svg">
<g clip-path="url(#clip0_877_2759)">
<path d="M18.9781 0.228118C19.0507 0.155363 19.1369 0.0976395 19.2318 0.0582544C19.3267 0.0188693 19.4285 -0.00140381 19.5313 -0.00140381C19.634 -0.00140381 19.7358 0.0188693 19.8307 0.0582544C19.9256 0.0976395 20.0118 0.155363 20.0844 0.228118L24.7719 4.91562C24.8446 4.98819 24.9024 5.0744 24.9417 5.16932C24.9811 5.26423 25.0014 5.36598 25.0014 5.46874C25.0014 5.5715 24.9811 5.67326 24.9417 5.76817C24.9024 5.86308 24.8446 5.9493 24.7719 6.02187L9.14688 21.6469C9.0719 21.7213 8.9826 21.7798 8.88438 21.8187L1.07188 24.9437C0.929902 25.0006 0.774371 25.0145 0.624564 24.9838C0.474757 24.953 0.337263 24.879 0.229128 24.7709C0.120993 24.6627 0.0469721 24.5252 0.0162417 24.3754C-0.0144887 24.2256 -0.000577002 24.0701 0.0562522 23.9281L3.18125 16.1156C3.2202 16.0174 3.27867 15.9281 3.35313 15.8531L18.9781 0.228118ZM17.5109 3.90624L21.0938 7.48906L23.1141 5.46874L19.5313 1.88593L17.5109 3.90624ZM19.9891 8.59374L16.4063 5.01093L6.25 15.1672V15.625H7.03125C7.23845 15.625 7.43717 15.7073 7.58368 15.8538C7.73019 16.0003 7.8125 16.199 7.8125 16.4062V17.1875H8.59375C8.80095 17.1875 8.99967 17.2698 9.14618 17.4163C9.29269 17.5628 9.375 17.7615 9.375 17.9687V18.75H9.83282L19.9891 8.59374ZM4.7375 16.6797L4.57188 16.8453L2.18438 22.8156L8.15469 20.4281L8.32031 20.2625C8.17128 20.2068 8.0428 20.107 7.95206 19.9763C7.86131 19.8456 7.81262 19.6903 7.8125 19.5312V18.75H7.03125C6.82405 18.75 6.62534 18.6677 6.47883 18.5212C6.33231 18.3747 6.25 18.1759 6.25 17.9687V17.1875H5.46875C5.30966 17.1874 5.15439 17.1387 5.02372 17.0479C4.89304 16.9572 4.79319 16.8287 4.7375 16.6797Z" fill="#575757"/>
</g>
<defs>
<clipPath id="clip0_877_2759">
<rect width="25" height="25" fill="white"/>
</clipPath>
</defs>
</svg>
