<svg width="28" height="28" viewBox="0 0 28 28" fill="none" xmlns="http://www.w3.org/2000/svg">
<path d="M14 2.33334C12.4679 2.33334 10.9508 2.6351 9.53536 3.22141C8.1199 3.80771 6.83377 4.66707 5.75042 5.75042C3.5625 7.93835 2.33334 10.9058 2.33334 14C2.33334 17.0942 3.5625 20.0617 5.75042 22.2496C6.83377 23.3329 8.1199 24.1923 9.53536 24.7786C10.9508 25.3649 12.4679 25.6667 14 25.6667C17.0942 25.6667 20.0617 24.4375 22.2496 22.2496C24.4375 20.0617 25.6667 17.0942 25.6667 14C25.6667 12.4679 25.3649 10.9508 24.7786 9.53536C24.1923 8.1199 23.3329 6.83377 22.2496 5.75042C21.1662 4.66707 19.8801 3.80771 18.4646 3.22141C17.0492 2.6351 15.5321 2.33334 14 2.33334ZM8.24834 21.3267C8.75 20.2767 11.8067 19.25 14 19.25C16.1933 19.25 19.25 20.2767 19.7517 21.3267C18.1176 22.6287 16.0894 23.3363 14 23.3333C11.83 23.3333 9.835 22.5867 8.24834 21.3267ZM21.42 19.635C19.7517 17.605 15.7033 16.9167 14 16.9167C12.2967 16.9167 8.24834 17.605 6.58 19.635C5.33889 18.0187 4.66628 16.0378 4.66667 14C4.66667 8.855 8.855 4.66667 14 4.66667C19.145 4.66667 23.3333 8.855 23.3333 14C23.3333 16.1233 22.61 18.0833 21.42 19.635ZM14 7C11.7367 7 9.91667 8.82 9.91667 11.0833C9.91667 13.3467 11.7367 15.1667 14 15.1667C16.2633 15.1667 18.0833 13.3467 18.0833 11.0833C18.0833 8.82 16.2633 7 14 7ZM14 12.8333C13.5359 12.8333 13.0908 12.649 12.7626 12.3208C12.4344 11.9926 12.25 11.5475 12.25 11.0833C12.25 10.6192 12.4344 10.1741 12.7626 9.8459C13.0908 9.51771 13.5359 9.33334 14 9.33334C14.4641 9.33334 14.9093 9.51771 15.2374 9.8459C15.5656 10.1741 15.75 10.6192 15.75 11.0833C15.75 11.5475 15.5656 11.9926 15.2374 12.3208C14.9093 12.649 14.4641 12.8333 14 12.8333Z" fill="#4C80E2"/>
</svg>
