<svg width="28" height="28" viewBox="0 0 28 28" fill="none" xmlns="http://www.w3.org/2000/svg">
<path d="M13.9999 2.33334C12.4678 2.33334 10.9507 2.63511 9.53528 3.22142C8.11981 3.80772 6.83369 4.66708 5.75034 5.75043C3.56242 7.93836 2.33325 10.9058 2.33325 14C2.33325 17.0942 3.56242 20.0617 5.75034 22.2496C6.83369 23.3329 8.11981 24.1923 9.53528 24.7786C10.9507 25.3649 12.4678 25.6667 13.9999 25.6667C17.0941 25.6667 20.0616 24.4375 22.2495 22.2496C24.4374 20.0617 25.6666 17.0942 25.6666 14C25.6666 12.4679 25.3648 10.9508 24.7785 9.53537C24.1922 8.1199 23.3328 6.83378 22.2495 5.75043C21.1661 4.66708 19.88 3.80772 18.4646 3.22142C17.0491 2.63511 15.532 2.33334 13.9999 2.33334ZM8.24825 21.3267C8.74992 20.2767 11.8066 19.25 13.9999 19.25C16.1933 19.25 19.2499 20.2767 19.7516 21.3267C18.1175 22.6287 16.0893 23.3363 13.9999 23.3333C11.8299 23.3333 9.83492 22.5867 8.24825 21.3267ZM21.4199 19.635C19.7516 17.605 15.7033 16.9167 13.9999 16.9167C12.2966 16.9167 8.24825 17.605 6.57992 19.635C5.3388 18.0187 4.6662 16.0378 4.66659 14C4.66659 8.85501 8.85492 4.66668 13.9999 4.66668C19.1449 4.66668 23.3333 8.85501 23.3333 14C23.3333 16.1233 22.6099 18.0833 21.4199 19.635ZM13.9999 7.00001C11.7366 7.00001 9.91659 8.82001 9.91659 11.0833C9.91659 13.3467 11.7366 15.1667 13.9999 15.1667C16.2633 15.1667 18.0833 13.3467 18.0833 11.0833C18.0833 8.82001 16.2633 7.00001 13.9999 7.00001ZM13.9999 12.8333C13.5358 12.8333 13.0907 12.649 12.7625 12.3208C12.4343 11.9926 12.2499 11.5475 12.2499 11.0833C12.2499 10.6192 12.4343 10.1741 12.7625 9.84591C13.0907 9.51772 13.5358 9.33334 13.9999 9.33334C14.464 9.33334 14.9092 9.51772 15.2374 9.84591C15.5655 10.1741 15.7499 10.6192 15.7499 11.0833C15.7499 11.5475 15.5655 11.9926 15.2374 12.3208C14.9092 12.649 14.464 12.8333 13.9999 12.8333Z" fill="#525252"/>
</svg>
