<svg width="25" height="25" viewBox="0 0 25 25" fill="none" xmlns="http://www.w3.org/2000/svg">
<path d="M1.04163 20.8334V17.9167C1.04163 17.3265 1.19371 16.7841 1.49788 16.2897C1.80204 15.7952 2.20551 15.4174 2.70829 15.1563C3.78468 14.6181 4.87843 14.2147 5.98954 13.9459C7.10065 13.6772 8.22913 13.5424 9.37496 13.5417C10.5208 13.5417 11.6493 13.6765 12.7604 13.9459C13.8715 14.2154 14.9652 14.6188 16.0416 15.1563C16.5451 15.4167 16.9489 15.7945 17.2531 16.2897C17.5573 16.7848 17.709 17.3272 17.7083 17.9167V20.8334H1.04163ZM19.7916 20.8334V17.7084C19.7916 16.9445 19.5791 16.2108 19.1541 15.5074C18.7291 14.8039 18.1257 14.2008 17.3437 13.698C18.2291 13.8022 19.0625 13.9803 19.8437 14.2324C20.625 14.4845 21.3541 14.7924 22.0312 15.1563C22.6562 15.5036 23.1336 15.8897 23.4635 16.3147C23.7934 16.7397 23.9583 17.2042 23.9583 17.7084V20.8334H19.7916ZM9.37496 12.5001C8.22913 12.5001 7.24822 12.0921 6.43225 11.2761C5.61628 10.4602 5.20829 9.47925 5.20829 8.33342C5.20829 7.18758 5.61628 6.20668 6.43225 5.39071C7.24822 4.57473 8.22913 4.16675 9.37496 4.16675C10.5208 4.16675 11.5017 4.57473 12.3177 5.39071C13.1336 6.20668 13.5416 7.18758 13.5416 8.33342C13.5416 9.47925 13.1336 10.4602 12.3177 11.2761C11.5017 12.0921 10.5208 12.5001 9.37496 12.5001ZM19.7916 8.33342C19.7916 9.47925 19.3836 10.4602 18.5677 11.2761C17.7517 12.0921 16.7708 12.5001 15.625 12.5001C15.434 12.5001 15.1909 12.4786 14.8958 12.4355C14.6007 12.3924 14.3576 12.3445 14.1666 12.2917C14.6354 11.7362 14.9958 11.1199 15.2479 10.4428C15.5 9.76571 15.6257 9.06258 15.625 8.33342C15.625 7.60425 15.4993 6.90112 15.2479 6.22404C14.9965 5.54696 14.6361 4.93064 14.1666 4.37508C14.4097 4.28828 14.6527 4.23203 14.8958 4.20633C15.1388 4.18064 15.3819 4.16744 15.625 4.16675C16.7708 4.16675 17.7517 4.57473 18.5677 5.39071C19.3836 6.20668 19.7916 7.18758 19.7916 8.33342Z" fill="#575757"/>
</svg>
