<svg ><defs id="SvgjsDefs1001"></defs><g id="SvgjsG1007" featurekey="symbolFeature-0" transform="matrix(1.0713833808497415,0,0,1.0713833808497415,-16.067589415729646,-10.713897157047843)" fill="#111111"><rect xmlns="http://www.w3.org/2000/svg" x="25.249" y="20.252" transform="matrix(0.7071 0.7071 -0.7071 0.7071 46.463 -22.1737)" fill="none" stroke="#111111" stroke-width="2" stroke-linecap="round" stroke-linejoin="round" stroke-miterlimit="10" width="49.499" height="49.497"></rect><path xmlns="http://www.w3.org/2000/svg" stroke="#111111" stroke-width="2" stroke-linecap="round" stroke-linejoin="round" stroke-miterlimit="10" d="M49.999,69.395  l24.394-24.392L50,20.608L25.608,45.002L49.999,69.395z M63.785,45.002L49.999,58.787L36.214,45.002L50,31.215L63.785,45.002z"></path><rect xmlns="http://www.w3.org/2000/svg" x="47.754" y="42.754" transform="matrix(-0.707 0.7072 -0.7072 -0.707 117.1804 41.4576)" stroke="#111111" stroke-width="2" stroke-linecap="round" stroke-linejoin="round" stroke-miterlimit="10" width="4.496" height="4.497"></rect><polygon xmlns="http://www.w3.org/2000/svg" stroke="#111111" stroke-width="2" stroke-linecap="round" stroke-linejoin="round" stroke-miterlimit="10" points="  49.999,80 20,50.004 15.002,55 49.999,90 85,55 80,50 "></polygon></g><g id="SvgjsG1008" featurekey="nameFeature-0" transform="matrix(0.6907985165371701,0,0,0.6907985165371701,92.84470854276044,22.263056087746254)" fill="#111111"><path d="M5.84 40 l-2.72 0 l0 -28.8 l10.52 0 c7.48 0 9.4 3.72 9.4 8.04 c0 6.44 -5.72 8.04 -11.04 8.04 l-6.16 0 l0 12.72 z M5.84 24.96 l6.24 0 c5.08 0 8.24 -1.04 8.24 -5.92 c0 -3.6 -2.32 -5.52 -7.44 -5.52 l-7.04 0 l0 11.44 z M29.840000000000003 29.84 l0 10.16 l-2.4 0 l0 -20.72 l2.4 0 l0 3.88 l0.08 0 c1.32 -3.32 3.28 -4.44 6.76 -4.44 l0 2.6 c-5.4 -0.12 -6.84 3.88 -6.84 8.52 z M48.88 40.56 c-5.28 -0.08 -9.6 -3.68 -9.6 -10.92 c0 -6.04 3.2 -10.92 9.6 -10.92 c6.48 0 9.6 4.84 9.6 10.92 c0 6.56 -3.8 10.92 -9.6 10.92 z M55.92 29.64 c-0.04 -4.88 -1.96 -8.76 -7.04 -8.76 c-5.04 0 -7.04 4.28 -7.04 8.76 c0 5.16 2.44 8.76 7.04 8.76 c5.04 0 7.04 -4.32 7.04 -8.76 z M78.88000000000001 29.72 c0 -5 -2.48 -8.84 -7 -8.84 c-4.04 0 -7.04 2.92 -7.08 8.12 c-0.2 5.2 2.12 9.4 7.08 9.4 c4.36 0 7 -4 7 -8.68 z M78.88000000000001 22.92 l0 -3.64 l2.4 0 l0 18.72 c0 5.56 -1.84 10.48 -9.72 10.48 c-6.08 0 -8.6 -3.48 -8.76 -5.96 l2.56 0 c0.72 3.12 3.36 3.8 6.2 3.8 c6.56 0 7.44 -4.88 7.32 -9.64 c-1.52 2.52 -4.48 3.88 -7.4 3.88 c-6.32 0 -9.24 -5.16 -9.24 -10.96 c0 -6.12 2.68 -10.88 9.36 -10.88 c2.64 0 5.8 1.48 7.2 4.2 l0.08 0 z M89.84000000000002 29.84 l0 10.16 l-2.4 0 l0 -20.72 l2.4 0 l0 3.88 l0.08 0 c1.32 -3.32 3.28 -4.44 6.76 -4.44 l0 2.6 c-5.4 -0.12 -6.84 3.88 -6.84 8.52 z M114.20000000000002 32.36 l0 -3.24 c-2.04 0.84 -4.12 1 -6.2 1.16 c-3.64 0.28 -5.84 1.6 -5.84 4.4 c0 2.52 2.2 3.72 4.48 3.72 c3.8 0 7.56 -1.84 7.56 -6.04 z M106.84000000000002 28.36 l3.32 -0.44 c0.88 -0.08 2.36 -0.32 3.16 -0.68 s0.88 -1.44 0.88 -2.16 c0 -2.44 -1.44 -4.2 -5.16 -4.2 c-3.32 0 -5.6 1.08 -6.04 4.68 l-2.44 0 c0.36 -4.88 4 -6.84 8.52 -6.84 c4.2 0 7.52 1.64 7.52 6.44 l0 11.28 c0 1.88 0.48 2.32 2.52 1.6 l0 1.88 c-0.36 0.12 -1.2 0.4 -1.88 0.4 c-0.4 0 -0.72 -0.04 -1.08 -0.12 c-1.6 -0.24 -1.88 -1.64 -1.92 -3.08 c-2 2.24 -4.72 3.44 -7.72 3.44 c-3.64 0 -6.92 -1.96 -6.92 -5.96 c0 -3.48 2.4 -5.6 7.24 -6.24 z M124.96000000000002 28.84 l0 11.16 l-2.4 0 l0 -20.72 l2.4 0 l0 3.12 l0.08 0 c1.24 -2.36 3.72 -3.68 6.4 -3.68 c3.84 0 5.2 1.8 6.08 4 c1.36 -2.68 3.8 -4 6.76 -4 c5.64 0 6.44 4.04 6.44 8.2 l0 13.08 l-2.4 0 l0 -14.32 c0 -2.96 -1.04 -4.8 -4.44 -4.8 c-1.76 0 -3.48 0.76 -4.68 2.36 c-1.04 1.36 -1.36 3.88 -1.36 5.6 l0 11.16 l-2.4 0 l0 -14.32 c0 -2.96 -1.04 -4.8 -4.44 -4.8 c-1.76 0 -3.48 0.76 -4.68 2.36 c-1.04 1.36 -1.36 3.88 -1.36 5.6 z M169.76000000000002 32.36 l0 -3.24 c-2.04 0.84 -4.12 1 -6.2 1.16 c-3.64 0.28 -5.84 1.6 -5.84 4.4 c0 2.52 2.2 3.72 4.48 3.72 c3.8 0 7.56 -1.84 7.56 -6.04 z M162.40000000000003 28.36 l3.32 -0.44 c0.88 -0.08 2.36 -0.32 3.16 -0.68 s0.88 -1.44 0.88 -2.16 c0 -2.44 -1.44 -4.2 -5.16 -4.2 c-3.32 0 -5.6 1.08 -6.04 4.68 l-2.44 0 c0.36 -4.88 4 -6.84 8.52 -6.84 c4.2 0 7.52 1.64 7.52 6.44 l0 11.28 c0 1.88 0.48 2.32 2.52 1.6 l0 1.88 c-0.36 0.12 -1.2 0.4 -1.88 0.4 c-0.4 0 -0.72 -0.04 -1.08 -0.12 c-1.6 -0.24 -1.88 -1.64 -1.92 -3.08 c-2 2.24 -4.72 3.44 -7.72 3.44 c-3.64 0 -6.92 -1.96 -6.92 -5.96 c0 -3.48 2.4 -5.6 7.24 -6.24 z M194.44000000000003 29.560000000000002 c0 -4.68 -2.64 -8.68 -7 -8.68 c-4.96 0 -7.28 4.2 -7.08 9.4 c0.04 5.2 3.04 8.12 7.08 8.12 c4.52 0 7 -3.84 7 -8.84 z M194.44000000000003 22.6 l0 -11.4 l2.4 0 l0 28.8 l-2.4 0 l0 -3.64 l-0.08 0 c-1.4 2.72 -4.56 4.2 -7.2 4.2 c-6.68 0 -9.36 -4.76 -9.36 -10.88 c0 -5.8 2.92 -10.96 9.24 -10.96 c2.92 0 5.88 1.36 7.4 3.88 z M211.12000000000003 40.56 c-5.28 -0.08 -9.6 -3.68 -9.6 -10.92 c0 -6.04 3.2 -10.92 9.6 -10.92 c6.48 0 9.6 4.84 9.6 10.92 c0 6.56 -3.8 10.92 -9.6 10.92 z M218.16000000000003 29.64 c-0.04 -4.88 -1.96 -8.76 -7.04 -8.76 c-5.04 0 -7.04 4.28 -7.04 8.76 c0 5.16 2.44 8.76 7.04 8.76 c5.04 0 7.04 -4.32 7.04 -8.76 z M227.64000000000004 29.84 l0 10.16 l-2.4 0 l0 -20.72 l2.4 0 l0 3.88 l0.08 0 c1.32 -3.32 3.28 -4.44 6.76 -4.44 l0 2.6 c-5.4 -0.12 -6.84 3.88 -6.84 8.52 z M242.56000000000003 40 l-2.92 0 l0 -3.52 l2.92 0 l0 3.52 z M247.32000000000002 13.52 l0 -2.32 l20.96 0 l0 2.32 l-9.12 0 l0 26.48 l-2.72 0 l0 -26.48 l-9.12 0 z M279.64000000000004 40 l-10 -28.8 l2.84 0 l8.68 25.6 l8.64 -25.6 l2.84 0 l-10 28.8 l-3 0 z"></path></g></svg>