<svg width="160" height="160" viewBox="0 0 160 160" fill="none" xmlns="http://www.w3.org/2000/svg">
<g id="Vector_image_perfil">
<path d="M0 80C0 35.8172 35.8172 0 80 0C124.183 0 160 35.8172 160 80C160 124.183 124.183 160 80 160C35.8172 160 0 124.183 0 80Z" fill="#F2F2F2"/>
<path d="M80 80C92.8917 80 103.333 69.5583 103.333 56.6667C103.333 43.775 92.8917 33.3333 80 33.3333C67.1083 33.3333 56.6667 43.775 56.6667 56.6667C56.6667 69.5583 67.1083 80 80 80ZM80 91.6667C64.425 91.6667 33.3333 99.4833 33.3333 115V126.667H126.667V115C126.667 99.4833 95.575 91.6667 80 91.6667Z" fill="#878787"/>
</g>
</svg>
