<svg width="25" height="25" viewBox="0 0 25 25" fill="none" xmlns="http://www.w3.org/2000/svg">
  <g clip-path="url(#clip0_1060_4227)">
    <path d="M18.9781 0.228118C19.0506 0.155363 19.1369 0.0976395 19.2318 0.0582544C19.3267 0.0188693 19.4284 -0.00140381 19.5312 -0.00140381C19.634 -0.00140381 19.7357 0.0188693 19.8306 0.0582544C19.9255 0.0976395 20.0117 0.155363 20.0843 0.228118L24.7718 4.91562C24.8446 4.98819 24.9023 5.0744 24.9417 5.16932C24.9811 5.26423 25.0013 5.36598 25.0013 5.46874C25.0013 5.5715 24.9811 5.67326 24.9417 5.76817C24.9023 5.86308 24.8446 5.9493 24.7718 6.02187L9.14682 21.6469C9.07184 21.7213 8.98254 21.7798 8.88432 21.8187L1.07182 24.9437C0.929841 25.0006 0.77431 25.0145 0.624503 24.9838C0.474696 24.953 0.337202 24.879 0.229067 24.7709C0.120932 24.6627 0.046911 24.5252 0.0161806 24.3754C-0.0145498 24.2256 -0.000638037 24.0701 0.0561911 23.9281L3.18119 16.1156C3.22014 16.0174 3.27861 15.9281 3.35307 15.8531L18.9781 0.228118ZM17.5109 3.90624L21.0937 7.48906L23.114 5.46874L19.5312 1.88593L17.5109 3.90624ZM19.989 8.59374L16.4062 5.01093L6.24994 15.1672V15.625H7.03119C7.23839 15.625 7.43711 15.7073 7.58362 15.8538C7.73013 16.0003 7.81244 16.199 7.81244 16.4062V17.1875H8.59369C8.80089 17.1875 8.99961 17.2698 9.14612 17.4163C9.29263 17.5628 9.37494 17.7615 9.37494 17.9687V18.75H9.83275L19.989 8.59374ZM4.73744 16.6797L4.57182 16.8453L2.18432 22.8156L8.15463 20.4281L8.32025 20.2625C8.17122 20.2068 8.04274 20.107 7.952 19.9763C7.86125 19.8456 7.81256 19.6903 7.81244 19.5312V18.75H7.03119C6.82399 18.75 6.62528 18.6677 6.47876 18.5212C6.33225 18.3747 6.24994 18.1759 6.24994 17.9687V17.1875H5.46869C5.3096 17.1874 5.15433 17.1387 5.02366 17.0479C4.89298 16.9572 4.79312 16.8287 4.73744 16.6797Z" fill="#575757"/>
  </g>
  <defs>
    <clipPath id="clip0_1060_4227">
      <rect width="25" height="25" fill="white"/>
    </clipPath>
  </defs>
</svg>